HIERARCHY
ROOT Hips
{
	OFFSET 0.000000 0.000000 0.000000
	CHANNELS 6 Xposition Yposition Zposition Xrotation Yrotation Zrotation
	JOINT LeftUpLeg_virtual
	{
		OFFSET 0.000000 0.000000 0.000000
		CHANNELS 3 Xrotation Yrotation Zrotation
		JOINT LeftUpLeg
		{
			OFFSET 11.394100 -6.187798 -0.413800
			CHANNELS 3 Xrotation Yrotation Zrotation
			JOINT LeftLeg
			{
				OFFSET 0.430247 -32.302673 3.732800
				CHANNELS 3 Xrotation Yrotation Zrotation
				JOINT LeftFoot
				{
					OFFSET -0.430247 -48.264931 -6.423300
					CHANNELS 3 Xrotation Yrotation Zrotation
					JOINT LeftToeBase
					{
						OFFSET 4.230900 -16.068199 23.438400
						CHANNELS 3 Xrotation Yrotation Zrotation
						JOINT LeftToe_End
						{
							OFFSET 4.510700 0.695400 19.974600
							CHANNELS 3 Xrotation Yrotation Zrotation
							End Site
							{
								OFFSET 0 0 0
							}
						}
					}
				}
			}
		}
	}
	JOINT RightUpLeg_virtual
	{
		OFFSET 0.000000 0.000000 0.000000
		CHANNELS 3 Xrotation Yrotation Zrotation
		JOINT RightUpLeg
		{
			OFFSET -11.333700 -6.187798 -0.413800
			CHANNELS 3 Xrotation Yrotation Zrotation
			JOINT RightLeg
			{
				OFFSET -0.430392 -32.302628 3.733000
				CHANNELS 3 Xrotation Yrotation Zrotation
				JOINT RightFoot
				{
					OFFSET 0.430392 -48.264973 -6.423500
					CHANNELS 3 Xrotation Yrotation Zrotation
					JOINT RightToeBase
					{
						OFFSET -4.230900 -16.068199 23.438400
						CHANNELS 3 Xrotation Yrotation Zrotation
						JOINT RightToe_End
						{
							OFFSET -4.510700 0.695400 19.974600
							CHANNELS 3 Xrotation Yrotation Zrotation
							End Site
							{
								OFFSET 0 0 0
							}
						}
					}
				}
			}
		}
	}
	JOINT Spine_virtual
	{
		OFFSET 0.000000 0.000000 0.000000
		CHANNELS 3 Xrotation Yrotation Zrotation
		JOINT Spine
		{
			OFFSET -0.002400 12.777504 0.315300
			CHANNELS 3 Xrotation Yrotation Zrotation
			JOINT Spine1
			{
				OFFSET -0.002067 5.816869 0.032633
				CHANNELS 3 Xrotation Yrotation Zrotation
				JOINT Spine1_split
				{
					OFFSET -0.002067 5.816869 0.032633
					CHANNELS 3 Xrotation Yrotation Zrotation
					JOINT Spine2
					{
						OFFSET -0.002067 5.816869 0.032633
						CHANNELS 3 Xrotation Yrotation Zrotation
						JOINT Neck_virtual
						{
							OFFSET 0.000000 0.000000 0.000000
							CHANNELS 3 Xrotation Yrotation Zrotation
							JOINT Neck
							{
								OFFSET -0.003700 21.199493 -0.826900
								CHANNELS 3 Xrotation Yrotation Zrotation
								JOINT Head
								{
									OFFSET 0.000000 20.442200 4.834800
									CHANNELS 3 Xrotation Yrotation Zrotation
									JOINT HeadTop_End
									{
										OFFSET 0.000000 34.668396 4.968400
										CHANNELS 3 Xrotation Yrotation Zrotation
										End Site
										{
											OFFSET 0 0 0
										}
									}
								}
							}
						}
						JOINT LeftShoulder_virtual
						{
							OFFSET 0.000000 0.000000 0.000000
							CHANNELS 3 Xrotation Yrotation Zrotation
							JOINT LeftShoulder
							{
								OFFSET 3.288150 8.794197 -1.372250
								CHANNELS 3 Xrotation Yrotation Zrotation
								JOINT LeftShoulder_split
								{
									OFFSET 3.288150 8.794197 -1.372250
									CHANNELS 3 Xrotation Yrotation Zrotation
									JOINT LeftArm
									{
										OFFSET 11.953299 -2.279007 -0.146200
										CHANNELS 3 Xrotation Yrotation Zrotation
										JOINT LeftForeArm
										{
											OFFSET 18.448900 0.000000 0.000000
											CHANNELS 3 Xrotation Yrotation Zrotation
											JOINT LeftHand
											{
												OFFSET 29.527798 0.000000 0.000000
												CHANNELS 3 Xrotation Yrotation Zrotation
												End Site
												{
													OFFSET 0 0 0
												}
											}
										}
									}
								}
							}
						}
						JOINT RightShoulder_virtual
						{
							OFFSET 0.000000 0.000000 0.000000
							CHANNELS 3 Xrotation Yrotation Zrotation
							JOINT RightShoulder
							{
								OFFSET -3.249400 8.794197 -1.372250
								CHANNELS 3 Xrotation Yrotation Zrotation
								JOINT RightShoulder_split
								{
									OFFSET -3.249400 8.794197 -1.372250
									CHANNELS 3 Xrotation Yrotation Zrotation
									JOINT RightArm
									{
										OFFSET -11.953299 -2.279007 -0.146200
										CHANNELS 3 Xrotation Yrotation Zrotation
										JOINT RightForeArm
										{
											OFFSET -18.448900 0.000000 0.000000
											CHANNELS 3 Xrotation Yrotation Zrotation
											JOINT RightHand
											{
												OFFSET -29.527802 0.000000 0.000000
												CHANNELS 3 Xrotation Yrotation Zrotation
												End Site
												{
													OFFSET 0 0 0
												}
											}
										}
									}
								}
							}
						}
					}
				}
			}
		}
	}
}
MOTION
Frames: 10
Frame Time: 0.03333333
-2.117582 93.940598 -0.416035 0.000000 0.000000 0.000000 -6.597321 -45.334465 -3.308187 -29.372515 2.591123 11.994114 33.950592 -8.794489 1.907810 -5.632702 -0.449363 -7.663905 -0.349968 -3.398285 4.076582 0.000000 0.000000 0.000000 -6.416587 -41.541006 -2.654045 -5.013723 -13.099668 -14.310726 31.024095 16.592613 -4.385726 -19.639138 0.500547 3.298150 -2.246614 -3.543048 4.242851 0.000000 0.000000 0.000000 -8.476219 -43.901553 -4.490749 5.807383 -0.516498 1.291805 14.013316 0.192530 0.262391 0.911915 2.560478 -0.081978 0.000000 0.000000 0.000000 13.116099 0.363208 -0.336671 6.382965 -26.897280 -1.965962 -11.607770 -41.490377 0.199501 0.000000 0.000000 0.000000 13.659932 0.434611 -0.334698 0.022979 -6.060403 -7.049388 -4.550987 -3.550955 -0.637185 -2.223121 9.801040 -60.825690 0.754555 -55.402311 -2.459180 0.000000 0.000000 0.000000 14.536968 0.965262 -0.169399 0.830683 5.337668 8.142581 3.854858 1.649558 1.825717 5.016657 -24.681278 70.476617 -7.283640 56.641191 7.045094 0.000000 0.000000 0.000000 
-2.136616 94.092888 -0.528206 0.000000 0.000000 0.000000 -6.924989 -49.156899 -3.595752 -28.050795 3.064841 12.909419 33.477134 -6.462629 1.689748 -5.928617 0.112555 -9.061018 -0.421065 -3.365927 3.858878 0.000000 0.000000 0.000000 -6.664379 -45.490621 -2.903905 -7.188394 -12.907711 -14.459222 31.902943 17.576341 -5.268509 -19.167893 0.790025 3.344733 -1.699149 -2.495510 4.211147 0.000000 0.000000 0.000000 -8.846528 -47.940350 -4.932667 5.547054 -1.200248 1.293156 14.616576 -1.078471 0.626328 0.811345 2.529022 -0.193647 0.000000 0.000000 0.000000 13.624872 -0.840798 0.034860 6.483398 -26.806423 -2.384728 -11.381166 -42.792003 1.089360 0.000000 0.000000 0.000000 14.251276 -0.786605 -0.020134 -0.118348 -7.629198 -6.844205 -4.548533 -3.348135 -0.940185 -0.723884 10.968399 -60.748194 0.528206 -56.352681 -2.472901 0.000000 0.000000 0.000000 15.155587 -0.229731 0.201169 0.868774 4.024110 8.236790 4.194570 1.228276 1.982090 5.543588 -24.036617 70.253850 -6.658140 57.805476 6.752603 0.000000 0.000000 0.000000 
-2.164911 94.270538 -0.634270 0.000000 0.000000 0.000000 -7.290885 -52.993495 -3.872577 -26.665357 3.712883 13.706320 33.030986 -4.101214 1.481395 -6.113903 0.587529 -10.436737 -0.540959 -3.365854 3.723023 0.000000 0.000000 0.000000 -6.935261 -49.444450 -3.130639 -9.149832 -12.619317 -14.489410 32.661886 18.284843 -6.178125 -18.838336 0.936234 3.457060 -1.336229 -1.762747 4.235384 0.000000 0.000000 0.000000 -9.270686 -51.939125 -5.393515 5.289463 -1.812725 1.265343 15.167480 -2.232957 0.929122 0.743681 2.451413 -0.267159 0.000000 0.000000 0.000000 14.098785 -1.929648 0.343276 6.302611 -26.620840 -2.919037 -10.971528 -43.916655 1.960080 0.000000 0.000000 0.000000 14.799760 -1.894800 0.238541 -0.260538 -9.035837 -6.595861 -4.513799 -3.108763 -1.156143 0.471743 12.134492 -60.524547 0.125678 -57.403164 -2.592082 0.000000 0.000000 0.000000 15.733870 -1.315040 0.512659 0.946129 2.680248 8.518090 4.628128 0.857299 2.104182 6.106929 -23.739747 69.762985 -6.028350 59.047347 6.523270 0.000000 0.000000 0.000000 
-2.192944 94.463936 -0.723362 0.000000 0.000000 0.000000 -7.680531 -56.795663 -4.148600 -25.244555 4.500463 14.365809 32.575850 -1.742263 1.294024 -6.240344 0.965556 -11.791456 -0.683405 -3.393230 3.656962 0.000000 0.000000 0.000000 -7.202840 -53.341039 -3.336316 -10.852398 -12.251893 -14.421709 33.238699 18.699448 -7.065995 -18.716643 0.927183 3.528624 -0.945279 -1.300053 4.312692 0.000000 0.000000 0.000000 -9.737679 -55.856348 -5.884988 5.056534 -2.341733 1.215799 15.623991 -3.238269 1.149088 0.704938 2.374846 -0.348275 0.000000 0.000000 0.000000 14.504866 -2.867792 0.566850 5.893221 -26.369388 -3.496601 -10.439689 -44.930774 2.797112 0.000000 0.000000 0.000000 15.274598 -2.857729 0.423811 -0.400527 -10.265614 -6.322298 -4.421447 -2.842939 -1.281905 1.275956 13.166858 -60.134249 -0.411658 -58.403185 -2.794099 0.000000 0.000000 0.000000 16.226204 -2.258222 0.740208 1.072585 1.385204 8.973541 5.116451 0.546773 2.203248 6.647238 -23.770266 69.025441 -5.476696 60.281720 6.407500 0.000000 0.000000 0.000000 
-2.224335 94.658035 -0.773453 0.000000 0.000000 0.000000 -8.106631 -60.555617 -4.459223 -23.819677 5.390489 14.888971 32.111520 0.584688 1.138560 -6.318951 1.237657 -13.150524 -0.863600 -3.442584 3.648911 0.000000 0.000000 0.000000 -7.448119 -57.157400 -3.523732 -12.306482 -11.840046 -14.308352 33.683160 18.843070 -7.889389 -18.699096 0.785965 3.559298 -0.436053 -1.032961 4.389508 0.000000 0.000000 0.000000 -10.287491 -59.646963 -6.438820 4.868175 -2.793178 1.146039 15.954987 -4.083412 1.280187 0.720455 2.274925 -0.354525 0.000000 0.000000 0.000000 14.823339 -3.641750 0.700826 5.325121 -26.055792 -4.049377 -9.856059 -45.843864 3.561339 0.000000 0.000000 0.000000 15.652821 -3.660008 0.539796 -0.535988 -11.314688 -6.036476 -4.320906 -2.535797 -1.357135 1.745790 13.955724 -59.595853 -1.024536 -59.187435 -3.035936 0.000000 0.000000 0.000000 16.596204 -3.048627 0.875611 1.239318 0.201930 9.544602 5.624909 0.286266 2.316538 7.027838 -24.029118 68.124505 -5.077094 61.306583 6.433397 0.000000 0.000000 0.000000 
-2.254566 94.839920 -0.800453 0.000000 0.000000 0.000000 -8.616658 -64.283910 -4.852388 -22.434728 6.349819 15.297027 31.698355 2.874060 1.010522 -6.327898 1.421051 -14.499184 -1.088243 -3.505198 3.680715 0.000000 0.000000 0.000000 -7.690615 -60.907693 -3.717849 -13.565349 -11.430767 -14.201463 34.032101 18.780606 -8.619998 -18.576858 0.535592 3.643961 0.087398 -0.901112 4.381179 0.000000 0.000000 0.000000 -10.941687 -63.289393 -7.095504 4.728349 -3.180246 1.058075 16.148427 -4.773121 1.336427 0.692019 2.154989 -0.366177 0.000000 0.000000 0.000000 15.046137 -4.259055 0.760916 4.667611 -25.695486 -4.524921 -9.279149 -46.665577 4.209202 0.000000 0.000000 0.000000 15.932653 -4.308343 0.603153 -0.662312 -12.212411 -5.736057 -4.277501 -2.200437 -1.415307 1.964610 14.446603 -58.969265 -1.621481 -59.682534 -3.243345 0.000000 0.000000 0.000000 16.831616 -3.695110 0.935535 1.439334 -0.828735 10.179664 6.139190 0.068103 2.404550 7.185341 -24.435738 67.189500 -4.846996 61.870654 6.581926 0.000000 0.000000 0.000000 
-2.291041 94.998634 -0.774963 0.000000 0.000000 0.000000 -9.282021 -67.941210 -5.401212 -21.126776 7.344087 15.612694 31.410384 5.116330 0.899892 -6.252107 1.552210 -15.803164 -1.302523 -3.568654 3.708326 0.000000 0.000000 0.000000 -7.963064 -64.574459 -3.948316 -14.652938 -11.049130 -14.115715 34.297167 18.604334 -9.246218 -18.250709 0.219157 3.897627 0.443289 -0.853049 4.230166 0.000000 0.000000 0.000000 -11.779465 -66.738830 -7.922207 4.640463 -3.522750 0.955012 16.216631 -5.323583 1.345686 0.640216 2.044635 -0.338297 0.000000 0.000000 0.000000 15.180106 -4.741792 0.773641 3.991995 -25.311293 -4.889754 -8.734882 -47.371480 4.718701 0.000000 0.000000 0.000000 16.117850 -4.821593 0.639429 -0.775408 -12.999690 -5.417757 -4.287095 -1.898541 -1.490112 2.007791 14.645925 -58.313655 -2.137913 -59.944609 -3.355501 0.000000 0.000000 0.000000 16.945831 -4.216049 0.946856 1.657275 -1.684280 10.797114 6.663517 -0.113526 2.535281 7.133025 -24.891593 66.354011 -4.763208 61.830861 6.789237 0.000000 0.000000 0.000000 
-2.331253 95.114288 -0.719368 0.000000 0.000000 0.000000 -10.257610 -71.477554 -6.247356 -19.922755 8.332674 15.847781 31.269070 7.289301 0.801010 -6.118650 1.658090 -17.025966 -1.475051 -3.621351 3.702755 0.000000 0.000000 0.000000 -8.286307 -68.102696 -4.247138 -15.535414 -10.698410 -14.025211 34.432374 18.383229 -9.772805 -17.804382 -0.113260 4.305842 0.527240 -0.842861 3.919172 0.000000 0.000000 0.000000 -12.890247 -69.944764 -9.010792 4.605091 -3.839661 0.846173 16.195408 -5.755282 1.340156 0.572960 1.971324 -0.321698 0.000000 0.000000 0.000000 15.244963 -5.118870 0.771001 3.328188 -24.923278 -5.134004 -8.218367 -47.961633 5.103465 0.000000 0.000000 0.000000 16.233215 -5.223560 0.674041 -0.874343 -13.716107 -5.106644 -4.376814 -1.656620 -1.580165 1.870862 14.612111 -57.659794 -2.553900 -60.025267 -3.342528 0.000000 0.000000 0.000000 16.967684 -4.635251 0.938324 1.878650 -2.365244 11.343277 7.261463 -0.237992 2.657825 6.951742 -25.360873 65.743412 -4.774541 61.282677 6.984710 0.000000 0.000000 0.000000 
-2.369506 95.193687 -0.645977 0.000000 0.000000 0.000000 -11.682268 -74.776269 -7.530297 -18.824495 9.256910 15.998547 31.247084 9.349634 0.703520 -5.958891 1.762909 -18.135361 -1.592549 -3.655476 3.639796 0.000000 0.000000 0.000000 -8.711908 -71.388441 -4.651206 -16.166544 -10.388685 -13.904959 34.411794 18.117191 -10.199617 -17.351553 -0.449991 4.702477 0.463895 -0.825182 3.505189 0.000000 0.000000 0.000000 -14.339128 -72.867996 -10.432790 4.617865 -4.144989 0.737767 16.123222 -6.092200 1.343743 0.526988 1.916595 -0.305283 0.000000 0.000000 0.000000 15.257833 -5.418789 0.774248 2.680838 -24.558179 -5.275470 -7.727844 -48.411363 5.372018 0.000000 0.000000 0.000000 16.299073 -5.539642 0.718814 -0.956287 -14.392761 -4.822963 -4.460509 -1.546823 -1.644258 1.527805 14.423830 -57.042086 -2.872041 -60.003239 -3.203684 0.000000 0.000000 0.000000 16.951806 -4.978072 0.930630 2.094341 -2.891531 11.764532 7.895752 -0.276899 2.753820 6.754135 -25.849336 65.405045 -4.832363 60.454523 7.113218 0.000000 0.000000 0.000000 
-2.410398 95.246269 -0.558849 0.000000 0.000000 0.000000 -13.742791 -77.718776 -9.435456 -17.817086 10.066579 16.057665 31.271034 11.246080 0.608736 -5.837079 1.874407 -19.092042 -1.669305 -3.671242 3.512353 0.000000 0.000000 0.000000 -9.283369 -74.337771 -5.188332 -16.580942 -10.118687 -13.760097 34.245213 17.839640 -10.526727 -16.953808 -0.758711 4.990622 0.398791 -0.771124 3.044107 0.000000 0.000000 0.000000 -16.178783 -75.435027 -12.231048 4.677620 -4.446835 0.640461 16.041311 -6.347667 1.368357 0.539573 1.920333 -0.280324 0.000000 0.000000 0.000000 15.241688 -5.656215 0.792666 2.031642 -24.228226 -5.347486 -7.250057 -48.728185 5.561050 0.000000 0.000000 0.000000 16.342027 -5.786180 0.780037 -1.027416 -15.042476 -4.603831 -4.532881 -1.586791 -1.706346 0.973803 14.155029 -56.467134 -3.134455 -59.945217 -2.973179 0.000000 0.000000 0.000000 16.926117 -5.253319 0.934257 2.284863 -3.293250 12.047324 8.553918 -0.187992 2.803556 6.619210 -26.361347 65.338853 -4.902133 59.630202 7.145118 0.000000 0.000000 0.000000 
